<svg width="27" height="20" viewBox="0 0 27 20" fill="none" xmlns="http://www.w3.org/2000/svg">
<path d="M5.82694 0.355395C5.71428 0.244259 5.58008 0.155675 5.43199 0.094704C5.28391 0.0337333 5.12485 0.0015713 4.96391 5.61521e-05C4.80296 -0.001459 4.64329 0.027702 4.494 0.0858732C4.34472 0.144044 4.20876 0.230086 4.09388 0.33908C2.7948 1.58841 1.76426 3.07394 1.06164 4.71006C0.359019 6.34618 -0.0017874 8.10056 6.97509e-06 9.8721C-0.00189983 11.7116 0.387165 13.532 1.14307 15.2201C1.89897 16.9083 3.00558 18.4282 4.39425 19.6857C4.62801 19.8946 4.93677 20.0073 5.255 19.9996C5.57323 19.992 5.87585 19.8648 6.09863 19.6449C6.63188 19.1294 6.56607 18.3087 6.05307 17.834C4.93847 16.807 4.05151 15.5716 3.44608 14.2029C2.84065 12.8342 2.5294 11.3607 2.53126 9.8721C2.53126 6.8603 3.78169 4.12912 5.81007 2.14192C6.29944 1.66062 6.35007 0.861169 5.82694 0.355395ZM8.79863 3.23178C8.57638 3.01069 8.27255 2.88379 7.95371 2.8789C7.63487 2.874 7.32702 2.99151 7.09763 3.20567C6.18438 4.07667 5.45952 5.11466 4.96526 6.25917C4.47101 7.40368 4.21725 8.63183 4.21875 9.8721C4.21875 12.6326 5.45063 15.1142 7.41319 16.8306C7.64501 17.0282 7.94659 17.132 8.25543 17.1205C8.56426 17.1089 8.85666 16.9829 9.072 16.7686C9.6255 16.2334 9.52256 15.3916 9.00282 14.9184C8.29061 14.2707 7.72326 13.4888 7.33579 12.6209C6.94832 11.7529 6.74896 10.8174 6.75 9.8721C6.75 7.99584 7.52119 6.29253 8.775 5.04277C9.25763 4.56311 9.33694 3.7506 8.79863 3.23178ZM18.2014 3.23015C18.4236 3.00905 18.7274 2.88216 19.0463 2.87726C19.3651 2.87237 19.673 2.98988 19.9024 3.20404C20.8158 4.07523 21.5408 5.11348 22.0351 6.25829C22.5293 7.40309 22.783 8.63156 22.7812 9.8721C22.7812 12.6326 21.5494 15.1142 19.5868 16.8306C19.355 17.0282 19.0534 17.132 18.7446 17.1205C18.4357 17.1089 18.1433 16.9829 17.928 16.7686C17.3745 16.2334 17.4774 15.3916 17.9972 14.9184C18.7094 14.2707 19.2767 13.4888 19.6642 12.6209C20.0517 11.7529 20.251 10.8174 20.25 9.8721C20.25 7.99584 19.4788 6.29253 18.225 5.04277C17.7424 4.56311 17.6631 3.74897 18.2014 3.23015ZM21.1731 0.355395C21.2857 0.244259 21.4199 0.155675 21.568 0.094704C21.7161 0.0337333 21.8751 0.0015713 22.0361 5.61521e-05C22.197 -0.001459 22.3567 0.027702 22.506 0.0858732C22.6553 0.144044 22.7912 0.230086 22.9061 0.33908C24.2052 1.58841 25.2357 3.07394 25.9384 4.71006C26.641 6.34618 27.0018 8.10056 27 9.8721C27.0019 11.7116 26.6128 13.532 25.8569 15.2201C25.101 16.9083 23.9944 18.4282 22.6057 19.6857C22.372 19.8946 22.0632 20.0073 21.745 19.9996C21.4268 19.992 21.1241 19.8648 20.9014 19.6449C20.3681 19.1294 20.4339 18.3087 20.9486 17.834C22.0629 16.8068 22.9496 15.5714 23.5547 14.2027C24.1598 12.834 24.4708 11.3606 24.4687 9.8721C24.4687 6.8603 23.2183 4.12912 21.1899 2.14192C20.7006 1.66062 20.6499 0.861169 21.1731 0.355395ZM13.5 7.42481C12.8287 7.42481 12.1848 7.68264 11.7101 8.1416C11.2354 8.60056 10.9688 9.22304 10.9688 9.8721C10.9688 10.5212 11.2354 11.1436 11.7101 11.6026C12.1848 12.0616 12.8287 12.3194 13.5 12.3194C14.1713 12.3194 14.8152 12.0616 15.2899 11.6026C15.7646 11.1436 16.0312 10.5212 16.0312 9.8721C16.0312 9.22304 15.7646 8.60056 15.2899 8.1416C14.8152 7.68264 14.1713 7.42481 13.5 7.42481Z" fill="#757575"/>
</svg>
