<svg width="25" height="25" viewBox="0 0 25 25" fill="none" xmlns="http://www.w3.org/2000/svg">
<path d="M10.3783 20.0291C10.899 19.9189 14.0721 19.9189 14.5929 20.0291C15.0381 20.1319 15.5195 20.3721 15.5195 20.8967C15.4936 21.3961 15.2006 21.8388 14.7958 22.12C14.2709 22.5291 13.6549 22.7883 13.011 22.8816C12.6549 22.9278 12.3049 22.9288 11.9612 22.8816C11.3162 22.7883 10.7003 22.5291 10.1764 22.1189C9.77059 21.8388 9.47761 21.3961 9.45172 20.8967C9.45172 20.3721 9.93313 20.1319 10.3783 20.0291ZM12.5471 2.08331C14.7139 2.08331 16.9273 3.11146 18.2421 4.81734C19.0952 5.91578 19.4865 7.01316 19.4865 8.71904V9.16282C19.4865 10.4711 19.8323 11.2422 20.5932 12.1308C21.1699 12.7855 21.3541 13.6258 21.3541 14.5375C21.3541 15.4481 21.055 16.3126 20.4555 17.0145C19.6708 17.8559 18.5641 18.393 17.4346 18.4864C15.7978 18.626 14.16 18.7435 12.5005 18.7435C10.8399 18.7435 9.20316 18.6732 7.56639 18.4864C6.43587 18.393 5.32917 17.8559 4.54546 17.0145C3.94604 16.3126 3.64581 15.4481 3.64581 14.5375C3.64581 13.6258 3.83113 12.7855 4.40674 12.1308C5.19147 11.2422 5.51448 10.4711 5.51448 9.16282V8.71904C5.51448 6.967 5.95136 5.82135 6.85102 4.69984C8.18859 3.06425 10.3326 2.08331 12.4539 2.08331H12.5471Z" fill="#757575"/>
<circle cx="19.0476" cy="5.9524" r="4.7619" fill="#EC4F3C"/>
</svg>
