<svg width="68" height="68" viewBox="0 0 68 68" fill="none" xmlns="http://www.w3.org/2000/svg">
<path fill-rule="evenodd" clip-rule="evenodd" d="M33.3333 0C14.9614 0 0 14.9542 0 33.3527C0 51.7123 14.9614 66.6667 33.3333 66.6667C51.7053 66.6667 66.6667 51.7123 66.6667 33.3527C66.6667 14.9542 51.7053 0 33.3333 0ZM25 26.5C25 25.1193 26.1193 24 27.5 24C28.8807 24 30 25.1193 30 26.5V39.5C30 40.8807 28.8807 42 27.5 42C26.1193 42 25 40.8807 25 39.5V26.5ZM38.5 24C37.1193 24 36 25.1193 36 26.5V39.5C36 40.8807 37.1193 42 38.5 42C39.8807 42 41 40.8807 41 39.5V26.5C41 25.1193 39.8807 24 38.5 24Z" fill="#15411F"/>
</svg>
