<svg width="34" height="33" viewBox="0 0 34 33" fill="none" xmlns="http://www.w3.org/2000/svg">
<path fill-rule="evenodd" clip-rule="evenodd" d="M0 16.5096C0 7.40231 7.63031 0 17 0C26.3697 0 34 7.40231 34 16.5096C34 25.5976 26.3697 33 17 33C7.63031 33 0 25.5976 0 16.5096ZM23.2356 18.1794C23.416 18.0043 23.6458 17.7337 23.6949 17.67C23.9576 17.3357 24.0888 16.9219 24.0888 16.5096C24.0888 16.0462 23.9411 15.6164 23.6621 15.2663C23.6393 15.244 23.5945 15.1968 23.5362 15.1351C23.427 15.0199 23.2705 14.8543 23.1207 14.7091C21.7751 13.3082 18.2634 11.0159 16.4257 10.3155C16.1468 10.2056 15.4411 9.96527 15.0637 9.94935C14.7026 9.94935 14.358 10.0289 14.0299 10.1881C13.6197 10.411 13.2915 10.7612 13.111 11.1751C12.9961 11.4616 12.8156 12.3213 12.8156 12.3372C12.6351 13.2764 12.5367 14.8046 12.5367 16.4921C12.5367 18.1015 12.6351 19.5644 12.7828 20.5196C12.7869 20.5235 12.801 20.5918 12.8229 20.6979C12.8896 21.0205 13.0285 21.6927 13.1766 21.9681C13.5376 22.6367 14.2433 23.0507 14.9981 23.0507H15.0637C15.556 23.0347 16.5898 22.6208 16.5898 22.605C18.3292 21.9044 21.7586 19.7236 23.137 18.2749L23.2356 18.1794Z" fill="white"/>
</svg>
