<svg width="42" height="42" viewBox="0 0 42 42" fill="none" xmlns="http://www.w3.org/2000/svg">
<rect width="42" height="42" rx="21" fill="#E6ECDD"/>
<path fill-rule="evenodd" clip-rule="evenodd" d="M10.1666 21.0063C10.1666 15.0268 15.0291 10.1667 21 10.1667C26.9709 10.1667 31.8333 15.0268 31.8333 21.0063C31.8333 26.9732 26.9709 31.8333 21 31.8333C15.0291 31.8333 10.1666 26.9732 10.1666 21.0063ZM24.9736 22.1026C25.0886 21.9877 25.235 21.81 25.2663 21.7682C25.4337 21.5487 25.5174 21.277 25.5174 21.0063C25.5174 20.7021 25.4232 20.4199 25.2454 20.19C25.2309 20.1754 25.2023 20.1444 25.1652 20.1039C25.0956 20.0282 24.9958 19.9195 24.9004 19.8241C24.0429 18.9044 21.8051 17.3993 20.634 16.9395C20.4562 16.8673 20.0065 16.7095 19.766 16.6991C19.5359 16.6991 19.3164 16.7513 19.1073 16.8558C18.8459 17.0022 18.6367 17.2321 18.5217 17.5038C18.4485 17.692 18.3335 18.2564 18.3335 18.2668C18.2184 18.8835 18.1557 19.8869 18.1557 20.9948C18.1557 22.0515 18.2184 23.012 18.3125 23.6391C18.3151 23.6417 18.3241 23.6865 18.3381 23.7562C18.3806 23.968 18.4691 24.4093 18.5635 24.5902C18.7936 25.0291 19.2432 25.3009 19.7242 25.3009H19.766C20.0798 25.2904 20.7386 25.0187 20.7386 25.0083C21.847 24.5483 24.0324 23.1165 24.9108 22.1653L24.9736 22.1026Z" fill="#15411F"/>
</svg>
