<svg width="68" height="68" viewBox="0 0 68 68" fill="none" xmlns="http://www.w3.org/2000/svg">
<path fill-rule="evenodd" clip-rule="evenodd" d="M0.666656 34.0193C0.666656 15.6208 15.6281 0.666664 34 0.666664C52.372 0.666664 67.3333 15.6208 67.3333 34.0193C67.3333 52.379 52.372 67.3333 34 67.3333C15.6281 67.3333 0.666656 52.379 0.666656 34.0193ZM46.2267 37.3927C46.5803 37.039 47.031 36.4923 47.1273 36.3637C47.6423 35.6883 47.8997 34.8523 47.8997 34.0193C47.8997 33.0833 47.61 32.215 47.063 31.5077C47.0183 31.4627 46.9303 31.3673 46.816 31.2427C46.602 31.01 46.295 30.6753 46.0013 30.382C43.363 27.552 36.4773 22.921 32.874 21.506C32.327 21.2841 30.9433 20.7985 30.2033 20.7664C29.4953 20.7664 28.8197 20.9272 28.1763 21.2488C27.372 21.699 26.7284 22.4065 26.3745 23.2426C26.1493 23.8215 25.7954 25.5581 25.7954 25.5903C25.4414 27.4877 25.2484 30.575 25.2484 33.984C25.2484 37.2353 25.4414 40.1907 25.731 42.1203C25.739 42.1283 25.7667 42.2663 25.8097 42.4807C25.9404 43.1323 26.2127 44.4903 26.5032 45.0467C27.2111 46.3973 28.5947 47.2337 30.0747 47.2337H30.2033C31.1687 47.2013 33.1957 46.3653 33.1957 46.3333C36.6063 44.918 43.3307 40.5123 46.0333 37.5857L46.2267 37.3927Z" fill="#15411F"/>
</svg>
