<svg width="25" height="24" viewBox="0 0 25 24" fill="none" xmlns="http://www.w3.org/2000/svg">
<path fill-rule="evenodd" clip-rule="evenodd" d="M2.5 8C1.39543 8 0.5 8.89543 0.5 10V22C0.5 23.1046 1.39543 24 2.5 24H22.5C23.6046 24 24.5 23.1046 24.5 22V10C24.5 8.89543 23.6046 8 22.5 8H2.5ZM10 13.5002C10 12.7323 10.8295 12.251 11.4961 12.6319L15.4806 14.9087C16.1524 15.2926 16.1524 16.2613 15.4806 16.6452L11.4961 18.9221C10.8295 19.303 10 18.8216 10 18.0538V13.5002Z" fill="#757575"/>
<rect x="1.5" y="4" width="22" height="2" rx="1" fill="#757575"/>
<rect x="2.5" width="20" height="2" rx="1" fill="#757575"/>
</svg>
