<svg width="24" height="24" viewBox="0 0 24 24" fill="none" xmlns="http://www.w3.org/2000/svg">
<path d="M9.45 21.67C5.16 20.54 2 16.64 2 12C2 6.48 6.44 2 12 2C18.67 2 22 7.56 22 7.56M22 7.56V3M22 7.56H19.99H17.56" stroke="#757575" stroke-width="1.5" stroke-linecap="round" stroke-linejoin="round"/>
<path d="M22 12C22 17.52 17.52 22 12 22" stroke="#757575" stroke-width="1.5" stroke-linecap="round" stroke-linejoin="round" stroke-dasharray="3 3"/>
<path d="M7.49883 9.75V8.71H9.57883V16H8.42883V9.75H7.49883ZM11.1449 12.26C11.1449 11.1067 11.3383 10.2067 11.7249 9.56C12.1183 8.90667 12.7916 8.58 13.7449 8.58C14.6983 8.58 15.3683 8.90667 15.7549 9.56C16.1483 10.2067 16.3449 11.1067 16.3449 12.26C16.3449 13.4267 16.1483 14.34 15.7549 15C15.3683 15.6533 14.6983 15.98 13.7449 15.98C12.7916 15.98 12.1183 15.6533 11.7249 15C11.3383 14.34 11.1449 13.4267 11.1449 12.26ZM15.2249 12.26C15.2249 11.72 15.1883 11.2633 15.1149 10.89C15.0483 10.5167 14.9083 10.2133 14.6949 9.98C14.4816 9.74 14.1649 9.62 13.7449 9.62C13.3249 9.62 13.0083 9.74 12.7949 9.98C12.5816 10.2133 12.4383 10.5167 12.3649 10.89C12.2983 11.2633 12.2649 11.72 12.2649 12.26C12.2649 12.82 12.2983 13.29 12.3649 13.67C12.4316 14.05 12.5716 14.3567 12.7849 14.59C13.0049 14.8233 13.3249 14.94 13.7449 14.94C14.1649 14.94 14.4816 14.8233 14.6949 14.59C14.9149 14.3567 15.0583 14.05 15.1249 13.67C15.1916 13.29 15.2249 12.82 15.2249 12.26Z" fill="#757575"/>
</svg>
