<svg width="38" height="38" viewBox="0 0 38 38" fill="none" xmlns="http://www.w3.org/2000/svg">
<path d="M19 0C15.2422 0 11.5687 1.11433 8.44417 3.20208C5.31964 5.28982 2.88436 8.25722 1.4463 11.729C0.0082324 15.2008 -0.368031 19.0211 0.365088 22.7067C1.09821 26.3923 2.90778 29.7778 5.56498 32.435C8.22218 35.0922 11.6077 36.9018 15.2933 37.6349C18.9789 38.368 22.7992 37.9918 26.271 36.5537C29.7428 35.1156 32.7102 32.6804 34.7979 29.5558C36.8857 26.4313 38 22.7578 38 19C38 13.9609 35.9982 9.12816 32.435 5.56497C28.8718 2.00178 24.0391 0 19 0ZM3.80001 19C3.80749 15.6263 4.93714 12.351 7.01101 9.69L28.31 30.989C26.0644 32.729 23.376 33.8049 20.5499 34.0946C17.7238 34.3843 14.8731 33.8762 12.3211 32.6279C9.76918 31.3796 7.61812 29.4411 6.11198 27.0324C4.60584 24.6236 3.80489 21.8409 3.80001 19ZM30.989 28.31L9.69001 7.011C12.6163 4.78689 16.2494 3.69848 19.9166 3.94732C23.5838 4.19616 27.0365 5.76538 29.6356 8.36442C32.2346 10.9635 33.8038 14.4162 34.0527 18.0834C34.3015 21.7506 33.2131 25.3837 30.989 28.31Z" fill="#757575"/>
</svg>
